<svg xmlns="http://www.w3.org/2000/svg" width="527.854" height="229.772" viewBox="0 0 527.854 229.772">
  <defs>
    <style>
      .cls-1 {
        fill: #f8f8f8;
      }
    </style>
  </defs>
  <g id="logo" transform="translate(-815 -321)">
    <path id="Path_1" data-name="Path 1" class="cls-1" d="M-1332.507,237.7a27.4,27.4,0,0,1,19.517-8.076,30.131,30.131,0,0,1,25.037,12.787l13.461-13.73q-14.335-17.768-37.555-17.768c-14.134,0-25.844,4.441-35.268,13.46-9.421,8.884-14.133,20.729-14.133,35.4a56.408,56.408,0,0,0,1.473,12.933h21.592a34.377,34.377,0,0,1-2.472-13.337C-1340.853,250.212-1338.026,242.944-1332.507,237.7Z" transform="translate(2176.447 131.629)"/>
    <path id="Path_2" data-name="Path 2" class="cls-1" d="M-1154.45,224.773c-9.423-9.288-21-13.865-34.729-13.865-13.6,0-25.171,4.577-34.459,13.865-9.289,9.153-14,20.728-14,34.727a54.227,54.227,0,0,0,1.6,13.2h21.563a33.1,33.1,0,0,1-2.568-13.2c0-8.344,2.557-15.344,7.672-21.132,5.25-5.789,12.115-8.615,20.729-8.615a25.809,25.809,0,0,1,20.057,8.749,30.209,30.209,0,0,1,7.941,21,33.1,33.1,0,0,1-2.568,13.2h21.288a54.01,54.01,0,0,0,1.6-13.2Q-1140.318,238.5-1154.45,224.773Z" transform="translate(2142.85 131.629)"/>
    <path id="Path_3" data-name="Path 3" class="cls-1" d="M-1146.126,181.35h-22.884l-9.96,13.865h19.651Z" transform="translate(2126.93 139.65)"/>
    <path id="Path_4" data-name="Path 4" class="cls-1" d="M-1022.177,223.3c-10.23-7-22.21-10.363-35.67-10.363h-31.095v60.313h20.056V231.381h7.942c23.557,0,35.4,9.422,35.4,28.131a33.342,33.342,0,0,1-2.63,13.741h21.273a55.065,55.065,0,0,0,1.683-13.741C-1005.217,243.226-1011.813,230.3-1022.177,223.3Z" transform="translate(2102.5 131.077)"/>
    <rect id="Rectangle_4" data-name="Rectangle 4" class="cls-1" width="19.922" height="60.313" transform="translate(1108.524 344.018)"/>
    <path id="Path_5" data-name="Path 5" class="cls-1" d="M-847.031,272.392v16.984h18.711v.01h19.651V272.392Z" transform="translate(2036.855 114.945)"/>
    <path id="Path_6" data-name="Path 6" class="cls-1" d="M-895.158,259.366c0-9.153,2.827-16.421,8.346-21.671a27.4,27.4,0,0,1,19.517-8.076,30.129,30.129,0,0,1,25.036,12.787l13.461-13.73q-14.335-17.768-37.554-17.768c-14.134,0-25.845,4.441-35.268,13.46-9.421,8.884-14.133,20.729-14.133,35.4a54.418,54.418,0,0,0,1.536,12.933h21.626A33.6,33.6,0,0,1-895.158,259.366Z" transform="translate(2055.504 131.629)"/>
    <path id="Path_7" data-name="Path 7" class="cls-1" d="M-761.942,259.5c0-8.344,2.557-15.344,7.673-21.132,5.25-5.789,12.114-8.615,20.729-8.615a25.809,25.809,0,0,1,20.057,8.749,30.209,30.209,0,0,1,7.941,21,33.1,33.1,0,0,1-2.568,13.2h21.288a54.01,54.01,0,0,0,1.6-13.2q0-21-14.133-34.727c-9.423-9.288-21-13.865-34.729-13.865-13.6,0-25.171,4.577-34.459,13.865-9.289,9.153-14,20.728-14,34.727a54.227,54.227,0,0,0,1.6,13.2h21.564A33.093,33.093,0,0,1-761.942,259.5Z" transform="translate(2019.354 131.629)"/>
    <path id="Path_8" data-name="Path 8" class="cls-1" d="M-1296.44,372.363l-32.493-54.536h-20.551v80.485h17.108V344l32.492,54.307h20.437V317.827h-16.993Z" transform="translate(2173.201 102.616)"/>
    <path id="Path_9" data-name="Path 9" class="cls-1" d="M-1214.875,317.827l-31.458,80.485h17.681l21.93-57.293,21.93,57.293h17.68l-31.458-80.485Z" transform="translate(2145.21 102.616)"/>
    <path id="Path_10" data-name="Path 10" class="cls-1" d="M-1066.593,344.119c0-8.152-2.869-14.582-8.724-19.289-5.742-4.707-13.089-7-22.044-7h-33.3v80.484h17.106V372.479h13.663l15.844,25.833h19.405l-17.8-29.047A27.215,27.215,0,0,0-1066.593,344.119Zm-33.754,12.745h-13.2V333.556h13.2c11.481,0,16.764,3.674,16.764,11.481C-1083.583,352.959-1089.211,356.864-1100.347,356.864Z" transform="translate(2113.82 102.616)"/>
    <path id="Path_11" data-name="Path 11" class="cls-1" d="M-1004.105,317.827l-31.458,80.485h17.681l21.93-57.293,21.93,57.293h17.68L-987.8,317.827Z" transform="translate(2088.016 102.616)"/>
    <path id="Path_12" data-name="Path 12" class="cls-1" d="M-866.843,372.363l-32.493-54.536h-20.552v80.485h17.107V344l32.493,54.307h20.436V317.827h-16.991Z" transform="translate(2056.626 102.616)"/>
    <path id="Path_13" data-name="Path 13" class="cls-1" d="M-783.232,371.33c0,7.922-4.134,12.63-11.022,12.63q-7.061,0-11.365-8.266L-817.1,387.06c4.937,8.382,12.745,12.515,23.308,12.515,17.452,0,27.556-10.219,27.556-28.934V317.827h-16.993Z" transform="translate(2028.734 102.616)"/>
    <path id="Path_14" data-name="Path 14" class="cls-1" d="M-697.972,317.827h-16.3l-31.458,80.485h17.681l21.93-57.293,21.93,57.293h17.681Z" transform="translate(2009.368 102.616)"/>
    <path id="Path_15" data-name="Path 15" class="cls-1" d="M-1230.718,482.228h6.193v.112a8.2,8.2,0,0,1-2.229,6.081,7.026,7.026,0,0,1-5.112,1.914,6.546,6.546,0,0,1-5.111-2.049,8.039,8.039,0,0,1-2.229-5.675,8.014,8.014,0,0,1,2.184-5.607,8,8,0,0,1,5.652-2.251,8.134,8.134,0,0,1,3.918.945,6.832,6.832,0,0,1,2.432,2.252l-1.824,1.283a6.12,6.12,0,0,0-1.846-1.711,5.058,5.058,0,0,0-2.657-.654,5.422,5.422,0,0,0-3.963,1.553,6.088,6.088,0,0,0-1.6,4.211,6.042,6.042,0,0,0,1.554,4.076,4.879,4.879,0,0,0,3.76,1.508,4.512,4.512,0,0,0,3.355-1.328,4.023,4.023,0,0,0,1.26-2.544h-3.738Z" transform="translate(2143.276 60.032)"/>
    <path id="Path_16" data-name="Path 16" class="cls-1" d="M-1199.434,475.123a6.724,6.724,0,0,1,3.964.879,4.192,4.192,0,0,1,1.779,3.535,4.119,4.119,0,0,1-3.333,4.188l4.684,6.417h-2.769l-4.3-6.148h-.405v6.148h-2.3V475.123Zm-.383,6.891h.721c.63,0,3.2-.067,3.2-2.455,0-2.116-2-2.319-3.13-2.319h-.788Z" transform="translate(2133.21 59.932)"/>
    <path id="Path_17" data-name="Path 17" class="cls-1" d="M-1170.876,475.123v9.052a5.238,5.238,0,0,0,.474,2.59,3.283,3.283,0,0,0,2.791,1.553,3.283,3.283,0,0,0,2.792-1.553,5.239,5.239,0,0,0,.474-2.59v-9.052h2.3v9.66a5.559,5.559,0,0,1-1.4,3.9,5.482,5.482,0,0,1-4.167,1.756,5.481,5.481,0,0,1-4.166-1.756,5.56,5.56,0,0,1-1.4-3.9v-9.66Z" transform="translate(2125.357 59.932)"/>
    <path id="Path_18" data-name="Path 18" class="cls-1" d="M-1136.591,475.123a5.866,5.866,0,0,1,3.288.812,4.344,4.344,0,0,1,1.868,3.648,4.209,4.209,0,0,1-1.463,3.288,5.428,5.428,0,0,1-3.671,1.17h-1.036v6.1h-2.3V475.123Zm-1.014,6.8h1.036c1.981,0,2.927-.968,2.927-2.364,0-.833-.338-2.319-2.949-2.319h-1.014Z" transform="translate(2116.329 59.932)"/>
    <path id="Path_19" data-name="Path 19" class="cls-1" d="M-1097.35,482.544a7.62,7.62,0,0,1-7.814,7.791,7.619,7.619,0,0,1-7.813-7.791,7.618,7.618,0,0,1,7.813-7.791A7.619,7.619,0,0,1-1097.35,482.544Zm-2.3,0a5.375,5.375,0,0,0-5.517-5.675,5.374,5.374,0,0,0-5.516,5.675,5.374,5.374,0,0,0,5.516,5.674A5.375,5.375,0,0,0-1099.647,482.544Z" transform="translate(2109.022 60.032)"/>
    <path id="Path_20" data-name="Path 20" class="cls-1" d="M-1046.144,477.285h-5.989v3.806h5.809v2.161h-5.809v4.728h5.989v2.163h-8.287V475.123h8.287Z" transform="translate(2093.135 59.932)"/>
    <path id="Path_21" data-name="Path 21" class="cls-1" d="M-1026.97,489.724l3.153-16.145,5.224,11.663,5.269-11.663,2.837,16.145h-2.341l-1.532-9.052-4.368,9.75-4.324-9.772-1.575,9.074Z" transform="translate(2085.684 60.351)"/>
    <path id="Path_22" data-name="Path 22" class="cls-1" d="M-984.026,475.123a5.866,5.866,0,0,1,3.288.812,4.344,4.344,0,0,1,1.868,3.648,4.209,4.209,0,0,1-1.463,3.288A5.429,5.429,0,0,1-984,484.04h-1.035v6.1h-2.3V475.123Zm-1.014,6.8H-984c1.981,0,2.928-.968,2.928-2.364,0-.833-.338-2.319-2.95-2.319h-1.014Z" transform="translate(2074.929 59.932)"/>
    <path id="Path_23" data-name="Path 23" class="cls-1" d="M-957.068,475.123a6.719,6.719,0,0,1,3.962.879,4.189,4.189,0,0,1,1.779,3.535,4.119,4.119,0,0,1-3.332,4.188l4.684,6.417h-2.77l-4.3-6.148h-.405v6.148h-2.3V475.123Zm-.383,6.891h.721c.63,0,3.2-.067,3.2-2.455,0-2.116-2-2.319-3.129-2.319h-.788Z" transform="translate(2067.442 59.932)"/>
    <path id="Path_24" data-name="Path 24" class="cls-1" d="M-922.144,477.285h-5.989v3.806h5.809v2.161h-5.809v4.728h5.989v2.163h-8.287V475.123h8.287Z" transform="translate(2059.487 59.932)"/>
    <path id="Path_25" data-name="Path 25" class="cls-1" d="M-896.071,478.355a2.388,2.388,0,0,0-.676-.945,2.392,2.392,0,0,0-1.62-.541,1.863,1.863,0,0,0-2.117,1.8c0,.451.158,1.238,1.621,1.823l1.508.609c2.771,1.125,3.536,2.7,3.536,4.413a4.629,4.629,0,0,1-4.841,4.819,4.4,4.4,0,0,1-3.536-1.509,4.86,4.86,0,0,1-1.26-2.927l2.273-.495a3.245,3.245,0,0,0,.631,1.913,2.369,2.369,0,0,0,1.959.9,2.413,2.413,0,0,0,2.477-2.521c0-1.532-1.171-2.162-2.163-2.567l-1.441-.608c-1.237-.518-3.062-1.553-3.062-3.8a4.056,4.056,0,0,1,4.392-3.964,4.43,4.43,0,0,1,3.017,1.013,5.151,5.151,0,0,1,1.148,1.51Z" transform="translate(2052.167 60.032)"/>
    <path id="Path_26" data-name="Path 26" class="cls-1" d="M-865.461,486.19h-6.417l-1.643,3.626H-876l7.475-15.9,7.116,15.9h-2.477Zm-.923-2.16-2.228-5.09-2.32,5.09Z" transform="translate(2044.716 60.259)"/>
    <path id="Path_27" data-name="Path 27" class="cls-1" d="M-837.618,475.123a6.719,6.719,0,0,1,3.962.879,4.19,4.19,0,0,1,1.779,3.535,4.119,4.119,0,0,1-3.331,4.188l4.683,6.417h-2.77l-4.3-6.148H-838v6.148h-2.3V475.123Zm-.383,6.891h.721c.63,0,3.2-.067,3.2-2.455,0-2.116-2-2.319-3.13-2.319H-838Z" transform="translate(2035.028 59.932)"/>
    <path id="Path_28" data-name="Path 28" class="cls-1" d="M-808.684,475.123v15.019h-2.3V475.123Z" transform="translate(2027.073 59.932)"/>
    <path id="Path_29" data-name="Path 29" class="cls-1" d="M-781.66,486.19h-6.417l-1.643,3.626H-792.2l7.475-15.9,7.117,15.9h-2.477Zm-.923-2.16-2.228-5.09-2.321,5.09Z" transform="translate(2021.976 60.259)"/>
    <path id="Path_30" data-name="Path 30" class="cls-1" d="M-754.2,475.123V487.98h4.413v2.163H-756.5V475.123Z" transform="translate(2012.289 59.932)"/>
  </g>
</svg>
